<?xml version="1.0" encoding="utf-8"?>
<!-- Generator: Adobe Illustrator 18.1.0, SVG Export Plug-In . SVG Version: 6.00 Build 0)  -->
<!DOCTYPE svg PUBLIC "-//W3C//DTD SVG 1.1//EN" "http://www.w3.org/Graphics/SVG/1.1/DTD/svg11.dtd">
<svg version="1.1" id="Menu" xmlns="http://www.w3.org/2000/svg" xmlns:xlink="http://www.w3.org/1999/xlink" x="0px" y="0px"
	 viewBox="626.4 324 907.2 648" enable-background="new 626.4 324 907.2 648" xml:space="preserve">
<path fill="#4682B4" d="M1494.7,583.2H665.3c-35.8,0-38.9,29-38.9,64.8s3.1,64.8,38.9,64.8h829.4c35.8,0,38.9-29,38.9-64.8
	S1530.5,583.2,1494.7,583.2z M1494.7,842.4H665.3c-35.8,0-38.9,29-38.9,64.8s3.1,64.8,38.9,64.8h829.4c35.8,0,38.9-29,38.9-64.8
	S1530.5,842.4,1494.7,842.4z M665.3,453.6h829.4c35.8,0,38.9-29,38.9-64.8s-3.1-64.8-38.9-64.8H665.3c-35.8,0-38.9,29-38.9,64.8
	S629.5,453.6,665.3,453.6z"/>
</svg>
